<svg xmlns="http://www.w3.org/2000/svg" viewBox="0 0 128 84" fill="none" role="img" aria-label="NAZAR">
  <defs>
    <linearGradient id="nz-beam" x1="34" y1="48" x2="120" y2="14" gradientUnits="userSpaceOnUse">
      <stop offset="0%"   stop-color="#ffd86b" stop-opacity="0.55"/>
      <stop offset="100%" stop-color="#ffd86b" stop-opacity="0.03"/>
    </linearGradient>
  </defs>

  <!-- stars -->
  <g fill="#8fa8bd">
    <circle cx="62" cy="8"  r="1"/>
    <circle cx="80" cy="5"  r="1.2"/>
    <circle cx="114" cy="46" r="1"/>
    <circle cx="120" cy="62" r="1.3"/>
    <circle cx="58" cy="34" r="0.9"/>
    <circle cx="72" cy="44" r="1"/>
  </g>

  <!-- light beam: lighthouse -> satellite -->
  <path d="M40 46 L118 8 L123 26 L44 60 Z" fill="url(#nz-beam)"/>

  <!-- Takshashila lighthouse emblem (colour mark, wordmark cropped out).
       Mirrored horizontally (scale -1 about the viewBox centre x=98.8) so the
       lighthouse's light fans to the right, toward the satellite. -->
  <svg x="2" y="28" width="48" height="52" viewBox="31.5 23.9 134.6 146.6">
    <g transform="translate(197.6,0) scale(-1,1)">
    <g transform="matrix(1.3333333,0,0,-1.3333333,0,194.36)">
      <g transform="scale(0.1)">
<path
         d="m 904.148,1064.02 0.024,-110.934 h 44.766 v 110.934 h -44.79"
         style="fill:#5c1237;fill-opacity:1;fill-rule:nonzero;stroke:none"
         id="path12" />
<path
         d="m 929.844,721.715 v 78.496 c 0,14.238 -11.297,26.629 -25.672,27.891 l 0.016,-106.387 h 25.656"
         style="fill:#5c1237;fill-opacity:1;fill-rule:nonzero;stroke:none"
         id="path14" />
<path
         d="M 837.336,1057.5 V 953.102 l -71.801,-9.434 v 99.102 l 49.778,14.73 22.023,6.52 z m 16.902,-104.414 v 110.934 h 49.91 l -0.015,213.96 c -0.813,0.44 -1.738,0.69 -2.707,0.69 -3.028,0 -5.321,-2.44 -5.321,-5.47 v -21.67 h -11.292 v -19.82 h -8.434 l -17.856,-32.43 h -11.46 v -21.84 h -0.059 -2.094 l -121.512,-95.87 -0.046,-23.73 h 18.418 v -0.34 -14.73 -99.102 -19.727 h -26.68 v -25.968 l 46.211,-20.86 -77.055,-694.953 c 18.559,-2.058 37.402,-3.121 56.508,-3.121 56.172,0 110.191,9.18 160.672,26.109 0.937,0.313 1.875,0.641 2.812,0.961 l -0.05,515.606 h -2.704 -0.058 -27.727 -0.703 v 78.496 c 0,14.43 11.594,27.016 26.25,27.98 0.617,0.067 1.547,0.145 2.18,0.145 0.019,0 0.027,0 0.058,0 0.633,0 1.496,-0.078 2.121,-0.145 0.196,-0.011 0.379,-0.078 0.567,-0.089 v 124.984 h -2.746 -47.188"
         style="fill:#5c1237;fill-opacity:1;fill-rule:nonzero;stroke:none"
         id="path16" />
<path
         d="m 722.605,1188.32 c -85.867,-3.03 -166.277,-27.52 -236.035,-68.26 l 255.2,-77.29 v 14.73 0.34 h -18.418 l 0.046,23.73 121.512,95.87 h 2.094 c -34.262,7.33 -69.809,11.21 -106.25,11.21 -6.074,0 -12.121,-0.12 -18.149,-0.33"
         style="fill:#f19914;fill-opacity:1;fill-rule:nonzero;stroke:none"
         id="path18" />
<path
         d="m 1079.79,1057.84 v 0 h -18.37 v -15.07 l 26.1,7.92 c -2.55,2.41 -5.13,4.8 -7.73,7.15"
         style="fill:#f19914;fill-opacity:1;fill-rule:nonzero;stroke:none"
         id="path20" />
<path
         d="m 1194.76,904.785 -133.34,38.883 v -19.727 h 26.67 v -25.968 l -46.21,-20.86 60.47,-545.504 c 88.62,90.95 143.21,215.223 143.21,352.235 0,79.238 -18.27,154.207 -50.8,220.941"
         style="fill:#f19914;fill-opacity:1;fill-rule:nonzero;stroke:none"
         id="path22" />
<path
         d="m 715.09,923.941 h 26.68 v 19.727 L 249.434,800.195 c -8.821,-37.351 -13.489,-76.308 -13.489,-116.351 0,-259.696 196.106,-473.582 448.301,-501.684 l 77.055,694.953 -46.211,20.86 v 25.968"
         style="fill:#f19914;fill-opacity:1;fill-rule:nonzero;stroke:none"
         id="path24" />
<path
         d="M 249.434,800.195 741.77,943.668 v 99.102 l -255.2,77.29 C 368.918,1051.37 281.57,936.441 249.434,800.195"
         style="fill:#f4ec07;fill-opacity:1;fill-rule:nonzero;stroke:none"
         id="path26" />
<path
         d="m 1087.52,1050.69 -26.1,-7.92 v -99.102 l 133.34,-38.883 c -26.8,54.965 -63.29,104.345 -107.24,145.905"
         style="fill:#f4ec07;fill-opacity:1;fill-rule:nonzero;stroke:none"
         id="path28" />
<path
         d="m 1037.65,943.668 -71.759,9.43 v 110.922 l 22.007,-6.52 49.752,-14.73 z m 4.23,-66.555 46.21,20.86 v 25.968 h -26.67 v 19.727 99.102 14.73 0.34 h 18.37 v 0 0.02 22.2 l -0.01,1.51 -121.51,95.87 h -2.149 v 21.84 h -11.473 l -17.851,32.43 h -8.43 v 19.82 H 907.07 v 21.67 c 0,3.03 -2.629,5.47 -5.644,5.47 v -116.13 -98.52 h 47.512 v -6.52 -104.414 h -47.512 v -124.75 c 0.019,0 0.027,0 0.058,0 0.633,0 1.496,-0.078 2.121,-0.145 14.649,-0.964 26.239,-13.55 26.239,-27.98 v -78.496 h -28.36 -0.058 V 205.148 c 76.914,25.801 145.564,69.633 200.924,126.461 l -60.47,545.504"
         style="fill:#4f112e;fill-opacity:1;fill-rule:nonzero;stroke:none"
         id="path30" />
<path
         d="m 987.898,1057.5 -22.007,6.52 V 953.098 l 71.759,-9.43 v 99.102 l -49.752,14.73"
         style="fill:#fbc814;fill-opacity:1;fill-rule:nonzero;stroke:none"
         id="path32" />
<path
         d="m 903.605,828.191 c -0.625,0.067 -1.542,0.145 -2.179,0.145 V 721.715 h 28.418 v 78.496 c 0,14.43 -11.59,27.016 -26.239,27.98"
         style="fill:#fbc814;fill-opacity:1;fill-rule:nonzero;stroke:none"
         id="path34" />
<path
         d="M 901.426,1057.5 V 953.086 h 47.512 v 110.934 h -47.512 v -6.52"
         style="fill:#fbc814;fill-opacity:1;fill-rule:nonzero;stroke:none"
         id="path36" />
<path
         d="m 765.535,1042.77 v -99.102 l 71.801,9.43 v 110.922 l -22.023,-6.52 -49.778,-14.73"
         style="fill:#f4ec07;fill-opacity:1;fill-rule:nonzero;stroke:none"
         id="path38" />
<path
         d="m 901.426,1057.5 v 6.52 H 854.238 V 953.086 h 47.188 V 1057.5"
         style="fill:#f4ec07;fill-opacity:1;fill-rule:nonzero;stroke:none"
         id="path40" />
<path
         d="m 872.996,800.211 v -78.496 h 28.43 v 106.621 c -0.633,0 -1.563,-0.078 -2.18,-0.145 -14.656,-0.964 -26.25,-13.55 -26.25,-27.98"
         style="fill:#f4ec07;fill-opacity:1;fill-rule:nonzero;stroke:none"
         id="path42" />
      </g>
    </g>
    </g>
  </svg>

  <!-- satellite -->
  <g>
    <circle cx="92" cy="19" r="14" fill="#ffe08a" opacity="0.10"/>
    <g fill="#2f6fc0" stroke="#67c8ff" stroke-width="0.8">
      <rect x="68" y="14.5" width="16" height="9" rx="0.8"/>
      <rect x="100" y="14.5" width="16" height="9" rx="0.8"/>
    </g>
    <g stroke="#1e4e90" stroke-width="0.7">
      <line x1="73.3" y1="14.5" x2="73.3" y2="23.5"/>
      <line x1="78.6" y1="14.5" x2="78.6" y2="23.5"/>
      <line x1="105.3" y1="14.5" x2="105.3" y2="23.5"/>
      <line x1="110.6" y1="14.5" x2="110.6" y2="23.5"/>
      <line x1="68" y1="19" x2="84" y2="19"/>
      <line x1="100" y1="19" x2="116" y2="19"/>
    </g>
    <g stroke="#9fb6c9" stroke-width="1">
      <line x1="84" y1="19" x2="86.5" y2="19"/>
      <line x1="97.5" y1="19" x2="100" y2="19"/>
    </g>
    <rect x="86.5" y="13" width="11" height="12" rx="2" fill="#dbeefb" stroke="#67c8ff" stroke-width="1"/>
    <line x1="92" y1="13" x2="92" y2="8.5" stroke="#cfe8ff" stroke-width="1"/>
    <circle cx="92" cy="7.5" r="1.6" fill="#cfe8ff"/>
  </g>
</svg>